<svg width="99" height="68" viewBox="0 0 99 68" fill="none" xmlns="http://www.w3.org/2000/svg">
<path opacity="0.1" d="M30.7555 53.3912C38.8274 53.3912 42.0378 47.4289 42.0378 35.321V32.6609C42.0378 20.6447 38.5522 14.5907 30.572 14.5907C22.6835 14.5907 19.1062 20.553 19.1062 32.6609V35.4127C19.1062 47.6124 22.6835 53.3912 30.7555 53.3912ZM30.2051 67.9757C11.8597 67.9757 0.302164 56.143 0.302164 35.5044V32.7526C0.302164 12.0224 13.2356 0.373091 30.572 0.373091C47.8166 0.373091 60.8418 11.1051 60.8418 32.3857V34.9541C60.8418 55.7761 48.9174 67.9757 30.2051 67.9757ZM79.5928 66.875V19.8192L67.118 27.5242V11.8389L82.1611 1.29036H98.3968V66.875H79.5928Z" fill="url(#paint0_linear_147_348)"/>
<defs>
<linearGradient id="paint0_linear_147_348" x1="51.5" y1="-13.125" x2="51.5" y2="87.875" gradientUnits="userSpaceOnUse">
<stop stop-color="#6F69F2"/>
<stop offset="1" stop-color="#403D8C" stop-opacity="0"/>
</linearGradient>
</defs>
</svg>
